<svg width="50" height="50" viewBox="0 0 50 50" fill="none" xmlns="http://www.w3.org/2000/svg">
<path d="M25.0002 25C26.146 25 27.1269 24.592 27.9429 23.776C28.7588 22.96 29.1668 21.9791 29.1668 20.8333C29.1668 19.6875 28.7588 18.7066 27.9429 17.8906C27.1269 17.0746 26.146 16.6666 25.0002 16.6666C23.8543 16.6666 22.8734 17.0746 22.0575 17.8906C21.2415 18.7066 20.8335 19.6875 20.8335 20.8333C20.8335 21.9791 21.2415 22.96 22.0575 23.776C22.8734 24.592 23.8543 25 25.0002 25ZM25.0002 40.3125C29.2363 36.4236 32.3786 32.8906 34.4272 29.7135C36.4759 26.5364 37.5002 23.7152 37.5002 21.25C37.5002 17.4652 36.2936 14.3663 33.8804 11.9531C31.4672 9.53989 28.5071 8.33329 25.0002 8.33329C21.4932 8.33329 18.5331 9.53989 16.12 11.9531C13.7068 14.3663 12.5002 17.4652 12.5002 21.25C12.5002 23.7152 13.5245 26.5364 15.5731 29.7135C17.6217 32.8906 20.7641 36.4236 25.0002 40.3125ZM25.0002 45.8333C19.4099 41.0764 15.2345 36.6579 12.4741 32.5781C9.7137 28.4982 8.3335 24.7222 8.3335 21.25C8.3335 16.0416 10.0088 11.8923 13.3595 8.80204C16.7102 5.71177 20.5904 4.16663 25.0002 4.16663C29.4099 4.16663 33.2901 5.71177 36.6408 8.80204C39.9915 11.8923 41.6668 16.0416 41.6668 21.25C41.6668 24.7222 40.2866 28.4982 37.5262 32.5781C34.7658 36.6579 30.5904 41.0764 25.0002 45.8333Z" fill="#1D1B20"/>
</svg>
