<svg width="130" height="130" viewBox="0 0 130 130" fill="none" xmlns="http://www.w3.org/2000/svg">
<circle cx="65" cy="65" r="65" fill="#09510B"/>
<path d="M18.9267 57.144L19.6827 57.2V70.612C19.6827 71.6013 19.8694 72.3573 20.2427 72.88C20.6347 73.4027 21.2041 73.664 21.9507 73.664C22.0067 73.664 22.0347 73.72 22.0347 73.832C22.0347 73.944 22.0067 74 21.9507 74C21.4654 74 21.0921 73.9907 20.8307 73.972L19.3467 73.944L17.6947 73.972C17.3961 73.9907 16.9667 74 16.4067 74C16.3507 74 16.3227 73.944 16.3227 73.832C16.3227 73.72 16.3507 73.664 16.4067 73.664C17.2094 73.664 17.8254 73.4027 18.2547 72.88C18.7027 72.3573 18.9267 71.6013 18.9267 70.612V57.144ZM33.1507 74.392C33.1507 74.448 33.1041 74.4853 33.0107 74.504C32.9174 74.5227 32.8521 74.5133 32.8147 74.476L19.3467 58.796C18.7121 58.068 18.1521 57.564 17.6667 57.284C17.1814 56.9853 16.7054 56.836 16.2387 56.836C16.1827 56.836 16.1547 56.78 16.1547 56.668C16.1547 56.556 16.1827 56.5 16.2387 56.5L17.3587 56.528C17.5827 56.5467 17.9187 56.556 18.3667 56.556L20.1587 56.528C20.3827 56.5093 20.6441 56.5 20.9427 56.5C21.0921 56.5 21.2041 56.5373 21.2787 56.612C21.3534 56.6867 21.4654 56.836 21.6147 57.06C21.9321 57.4893 22.1654 57.788 22.3147 57.956L32.9267 70.444L33.1507 74.392ZM33.1507 74.392L32.3947 73.552V59.916C32.3947 58.9267 32.1987 58.1707 31.8067 57.648C31.4334 57.1067 30.8734 56.836 30.1267 56.836C30.0894 56.836 30.0707 56.78 30.0707 56.668C30.0707 56.556 30.0894 56.5 30.1267 56.5L31.2747 56.528C31.8721 56.5653 32.3667 56.584 32.7587 56.584C33.1134 56.584 33.6267 56.5653 34.2987 56.528L35.4747 56.5C35.5307 56.5 35.5587 56.556 35.5587 56.668C35.5587 56.78 35.5307 56.836 35.4747 56.836C34.7281 56.836 34.1494 57.1067 33.7387 57.648C33.3467 58.1707 33.1507 58.9267 33.1507 59.916V74.392ZM47.7505 60.056C48.2172 59.2907 48.4505 58.628 48.4505 58.068C48.4505 57.2467 47.9372 56.836 46.9105 56.836C46.8732 56.836 46.8545 56.78 46.8545 56.668C46.8545 56.556 46.8732 56.5 46.9105 56.5L48.3665 56.528C49.1505 56.5653 49.8692 56.584 50.5225 56.584C50.8399 56.584 51.2225 56.5653 51.6705 56.528L52.7065 56.5C52.7439 56.5 52.7625 56.556 52.7625 56.668C52.7625 56.78 52.7439 56.836 52.7065 56.836C52.0905 56.836 51.3905 57.1627 50.6065 57.816C49.8225 58.4507 49.1225 59.272 48.5065 60.28L44.6145 66.58L44.0545 66.132L47.7505 60.056ZM38.3705 59.468C37.7359 58.4787 37.1852 57.7973 36.7185 57.424C36.2705 57.032 35.8319 56.836 35.4025 56.836C35.3465 56.836 35.3185 56.78 35.3185 56.668C35.3185 56.556 35.3465 56.5 35.4025 56.5L36.3265 56.528C36.7372 56.5653 37.0359 56.584 37.2225 56.584C37.8385 56.584 38.7252 56.5653 39.8825 56.528L41.6465 56.5C41.6839 56.5 41.7025 56.556 41.7025 56.668C41.7025 56.78 41.6839 56.836 41.6465 56.836C40.8625 56.836 40.4705 57.088 40.4705 57.592C40.4705 57.816 40.5919 58.124 40.8345 58.516L45.1185 65.096L42.8785 66.356L38.3705 59.468ZM45.3145 65.068V71.732C45.3145 72.3107 45.3612 72.7307 45.4545 72.992C45.5479 73.2533 45.7345 73.4307 46.0145 73.524C46.3132 73.6173 46.7799 73.664 47.4145 73.664C47.4705 73.664 47.4985 73.72 47.4985 73.832C47.4985 73.944 47.4705 74 47.4145 74C46.8172 74 46.3505 73.9907 46.0145 73.972L43.9705 73.944L41.9545 73.972C41.5812 73.9907 41.0865 74 40.4705 74C40.4332 74 40.4145 73.944 40.4145 73.832C40.4145 73.72 40.4332 73.664 40.4705 73.664C41.1052 73.664 41.5719 73.6173 41.8705 73.524C42.1692 73.4307 42.3745 73.2533 42.4865 72.992C42.5985 72.712 42.6545 72.292 42.6545 71.732V65.32L45.3145 65.068ZM67.4404 58.824C67.4404 58.264 67.3844 57.8533 67.2724 57.592C67.1604 57.312 66.9364 57.116 66.6004 57.004C66.2644 56.892 65.7511 56.836 65.0604 56.836C65.0044 56.836 64.9764 56.78 64.9764 56.668C64.9764 56.556 65.0044 56.5 65.0604 56.5L66.4044 56.528C67.3004 56.5653 68.0938 56.584 68.7844 56.584C69.2884 56.584 69.9698 56.5653 70.8284 56.528L72.3684 56.5C72.4244 56.5 72.4524 56.556 72.4524 56.668C72.4524 56.78 72.4244 56.836 72.3684 56.836C71.6964 56.836 71.2018 56.892 70.8844 57.004C70.5671 57.0973 70.3524 57.2747 70.2404 57.536C70.1284 57.7973 70.0724 58.208 70.0724 58.768V71.732C70.0724 72.292 70.1284 72.712 70.2404 72.992C70.3524 73.2533 70.5671 73.4307 70.8844 73.524C71.2018 73.6173 71.6964 73.664 72.3684 73.664C72.4244 73.664 72.4524 73.72 72.4524 73.832C72.4524 73.944 72.4244 74 72.3684 74C71.7338 74 71.2204 73.9907 70.8284 73.972L68.7844 73.944L66.4044 73.972C66.0684 73.9907 65.6204 74 65.0604 74C65.0044 74 64.9764 73.944 64.9764 73.832C64.9764 73.72 65.0044 73.664 65.0604 73.664C65.7698 73.664 66.2831 73.6173 66.6004 73.524C66.9364 73.4307 67.1604 73.2533 67.2724 72.992C67.3844 72.712 67.4404 72.292 67.4404 71.732V58.824ZM56.3804 64.536H68.6444V65.264H56.3804V64.536ZM55.1484 58.768C55.1484 58.208 55.0924 57.7973 54.9804 57.536C54.8684 57.2747 54.6538 57.0973 54.3364 57.004C54.0191 56.892 53.5338 56.836 52.8804 56.836C52.8431 56.836 52.8244 56.78 52.8244 56.668C52.8244 56.556 52.8431 56.5 52.8804 56.5L54.3644 56.528C55.2231 56.5653 55.8951 56.584 56.3804 56.584C57.0338 56.584 57.8084 56.5653 58.7044 56.528L60.1604 56.5C60.1978 56.5 60.2164 56.556 60.2164 56.668C60.2164 56.78 60.1978 56.836 60.1604 56.836C59.4884 56.836 58.9844 56.892 58.6484 57.004C58.3311 57.116 58.1071 57.312 57.9764 57.592C57.8644 57.8533 57.8084 58.264 57.8084 58.824V71.732C57.8084 72.292 57.8644 72.712 57.9764 72.992C58.0884 73.2533 58.3031 73.4307 58.6204 73.524C58.9564 73.6173 59.4698 73.664 60.1604 73.664C60.1978 73.664 60.2164 73.72 60.2164 73.832C60.2164 73.944 60.1978 74 60.1604 74C59.5258 74 59.0311 73.9907 58.6764 73.972L56.3804 73.944L54.3364 73.972C53.9818 73.9907 53.4871 74 52.8524 74C52.8151 74 52.7964 73.944 52.7964 73.832C52.7964 73.72 52.8151 73.664 52.8524 73.664C53.5244 73.664 54.0191 73.6173 54.3364 73.524C54.6538 73.4307 54.8684 73.2533 54.9804 72.992C55.0924 72.712 55.1484 72.292 55.1484 71.732V58.768ZM73.8446 74C73.7886 74 73.7606 73.944 73.7606 73.832C73.7606 73.72 73.7886 73.664 73.8446 73.664C74.4792 73.664 74.9366 73.6173 75.2166 73.524C75.5152 73.4307 75.7112 73.2533 75.8046 72.992C75.9166 72.712 75.9726 72.292 75.9726 71.732V58.768C75.9726 58.208 75.9166 57.7973 75.8046 57.536C75.7112 57.2747 75.5152 57.0973 75.2166 57.004C74.9179 56.892 74.4606 56.836 73.8446 56.836C73.7886 56.836 73.7606 56.78 73.7606 56.668C73.7606 56.556 73.7886 56.5 73.8446 56.5H85.4926C85.6792 56.5 85.7726 56.584 85.7726 56.752L85.8286 60.392C85.8286 60.4293 85.7726 60.4573 85.6606 60.476C85.5672 60.476 85.5112 60.448 85.4926 60.392C85.0446 58.2827 83.7566 57.228 81.6286 57.228H80.4806C79.7899 57.228 79.3046 57.3493 79.0246 57.592C78.7632 57.8347 78.6326 58.2453 78.6326 58.824V71.62C78.6326 72.236 78.7446 72.6653 78.9686 72.908C79.2112 73.1507 79.6312 73.272 80.2286 73.272H81.6006C84.1019 73.272 85.6886 72.068 86.3606 69.66C86.3606 69.6227 86.4072 69.604 86.5006 69.604C86.6312 69.604 86.6966 69.632 86.6966 69.688C86.5099 71.1067 86.4166 72.404 86.4166 73.58C86.4166 73.7293 86.3886 73.8413 86.3326 73.916C86.2766 73.972 86.1646 74 85.9966 74H73.8446ZM84.4286 67.672C84.4286 66.0667 83.3832 65.264 81.2926 65.264H77.3726V64.536H81.3206C83.3739 64.536 84.4006 63.8453 84.4006 62.464C84.4006 62.408 84.4472 62.38 84.5406 62.38C84.6526 62.38 84.7086 62.408 84.7086 62.464L84.6806 64.9L84.7086 66.216C84.7459 66.8133 84.7646 67.2987 84.7646 67.672C84.7646 67.7093 84.7086 67.728 84.5966 67.728C84.4846 67.728 84.4286 67.7093 84.4286 67.672ZM96.2691 74.112C95.6904 74.112 95.0091 74.084 94.2251 74.028C93.9451 74.0093 93.5904 73.9907 93.1611 73.972C92.7317 73.9533 92.2557 73.944 91.7331 73.944L89.7451 73.972C89.3904 73.9907 88.8957 74 88.2611 74C88.2237 74 88.2051 73.944 88.2051 73.832C88.2051 73.72 88.2237 73.664 88.2611 73.664C88.8957 73.664 89.3531 73.6173 89.6331 73.524C89.9317 73.4307 90.1371 73.2533 90.2491 72.992C90.3611 72.712 90.4171 72.292 90.4171 71.732V58.768C90.4171 58.208 90.3611 57.7973 90.2491 57.536C90.1557 57.2747 89.9597 57.0973 89.6611 57.004C89.3624 56.892 88.9051 56.836 88.2891 56.836C88.2517 56.836 88.2331 56.78 88.2331 56.668C88.2331 56.556 88.2517 56.5 88.2891 56.5L89.7731 56.528C90.5944 56.5653 91.2477 56.584 91.7331 56.584C92.4611 56.584 93.2171 56.556 94.0011 56.5C94.9344 56.4627 95.5597 56.444 95.8771 56.444C97.7811 56.444 99.4704 56.8173 100.945 57.564C102.42 58.3107 103.558 59.328 104.361 60.616C105.182 61.904 105.593 63.3507 105.593 64.956C105.593 66.7667 105.173 68.372 104.333 69.772C103.493 71.1533 102.364 72.2267 100.945 72.992C99.5264 73.7387 97.9677 74.112 96.2691 74.112ZM95.9891 73.552C97.2771 73.552 98.4157 73.244 99.4051 72.628C100.413 72.012 101.197 71.1067 101.757 69.912C102.317 68.6987 102.597 67.252 102.597 65.572C102.597 63.9667 102.326 62.52 101.785 61.232C101.262 59.9253 100.516 58.8987 99.5451 58.152C98.5744 57.3867 97.4451 57.004 96.1571 57.004C95.3544 57.004 94.7384 57.0507 94.3091 57.144C93.8984 57.2373 93.5904 57.4147 93.3851 57.676C93.1797 57.9187 93.0771 58.3013 93.0771 58.824V71.424C93.0771 72.1893 93.2731 72.74 93.6651 73.076C94.0757 73.3933 94.8504 73.552 95.9891 73.552ZM108.231 56.724C108.212 56.612 108.389 56.528 108.763 56.472C109.136 56.416 109.537 56.388 109.967 56.388C110.377 56.388 110.769 56.4253 111.143 56.5C111.535 56.556 111.721 56.6307 111.703 56.724C111.329 58.18 111.049 59.748 110.863 61.428C110.695 63.108 110.517 65.236 110.331 67.812L110.275 68.708C110.275 68.7827 110.153 68.82 109.911 68.82C109.649 68.82 109.519 68.7827 109.519 68.708C109.388 66.0947 109.229 63.8453 109.043 61.96C108.875 60.056 108.604 58.3107 108.231 56.724ZM109.799 74.308C109.332 74.308 108.959 74.168 108.679 73.888C108.399 73.608 108.259 73.2347 108.259 72.768C108.259 72.32 108.399 71.9653 108.679 71.704C108.959 71.4427 109.332 71.312 109.799 71.312C110.284 71.312 110.657 71.4427 110.919 71.704C111.18 71.9653 111.311 72.32 111.311 72.768C111.311 73.2533 111.18 73.636 110.919 73.916C110.657 74.1773 110.284 74.308 109.799 74.308Z" fill="#FBFBFC"/>
</svg>
