<svg width="43" height="30" viewBox="0 0 43 30" fill="none" xmlns="http://www.w3.org/2000/svg">
<path d="M41.7734 4.69531C41.2891 2.84375 39.8359 1.39062 38 0.898438C34.6797 0 21.3359 0 21.3359 0C21.3359 0 7.99219 0 4.66406 0.898438C2.82812 1.39062 1.38281 2.84375 0.890625 4.69531C1.49012e-07 8.04688 0 15.0312 0 15.0312C0 15.0312 1.49012e-07 22.0156 0.890625 25.3672C1.38281 27.2109 2.82812 28.6094 4.66406 29.1016C7.99219 30 21.3359 30 21.3359 30C21.3359 30 34.6797 30 38.0078 29.1016C39.8438 28.6094 41.2891 27.2109 41.7812 25.3672C42.6719 22.0156 42.6719 15.0312 42.6719 15.0312C42.6719 15.0312 42.6719 8.04688 41.7812 4.69531H41.7734ZM16.9688 21.375V8.6875L28.1172 15.0312L16.9688 21.375Z" fill="white"/>
</svg>
