<svg width="24" height="23" viewBox="0 0 24 23" fill="none" xmlns="http://www.w3.org/2000/svg">
<path d="M0 6.76471H24V18.9412C24 20.0686 23.6111 21.027 22.8333 21.8162C22.0556 22.6054 21.1111 23 20 23H4C2.88889 23 1.94444 22.6054 1.16667 21.8162C0.388889 21.027 0 20.0686 0 18.9412V6.76471ZM2.66667 9.47059V18.9412C2.66667 19.3245 2.79444 19.6458 3.05 19.9051C3.30556 20.1645 3.62222 20.2941 4 20.2941H20C20.3778 20.2941 20.6944 20.1645 20.95 19.9051C21.2056 19.6458 21.3333 19.3245 21.3333 18.9412V9.47059H2.66667ZM0 5.41176V2.70588H8V1.35294C8 0.969608 8.12778 0.648284 8.38333 0.388971C8.63889 0.129657 8.95556 0 9.33333 0H14.6667C15.0444 0 15.3611 0.129657 15.6167 0.388971C15.8722 0.648284 16 0.969608 16 1.35294V2.70588H24V5.41176H0Z" fill="#1F1F1F"/>
</svg>
