<svg width="24" height="24" viewBox="0 0 24 24" fill="none" xmlns="http://www.w3.org/2000/svg">
<path d="M0 12C0 10.3455 0.313636 8.79091 0.940909 7.33636C1.56818 5.88182 2.42727 4.60909 3.51818 3.51818C4.60909 2.42727 5.88182 1.56818 7.33636 0.940909C8.79091 0.313636 10.3455 0 12 0C13.0545 0 14.0636 0.127273 15.0273 0.381818C15.9909 0.636364 16.9091 1 17.7818 1.47273C18.3636 1.32727 18.9864 1.22727 19.65 1.17273C20.3136 1.11818 21.0364 1.09091 21.8182 1.09091C21.8182 1.78182 21.7955 2.43182 21.75 3.04091C21.7045 3.65 21.6364 4.21818 21.5455 4.74545C22.3091 5.76364 22.9091 6.88636 23.3455 8.11364C23.7818 9.34091 24 10.6364 24 12C24 13.6545 23.6864 15.2091 23.0591 16.6636C22.4318 18.1182 21.5727 19.3909 20.4818 20.4818C19.3909 21.5727 18.1182 22.4318 16.6636 23.0591C15.2091 23.6864 13.6545 24 12 24C10.3455 24 8.79091 23.6864 7.33636 23.0591C5.88182 22.4318 4.60909 21.5727 3.51818 20.4818C2.42727 19.3909 1.56818 18.1182 0.940909 16.6636C0.313636 15.2091 0 13.6545 0 12ZM6.57273 12C6.57273 12.2727 6.61818 12.5455 6.70909 12.8182C6.8 13.0909 6.92727 13.3455 7.09091 13.5818L9.81818 17.4L12.5455 13.5818C12.7091 13.3455 12.8364 13.0909 12.9273 12.8182C13.0182 12.5455 13.0636 12.2727 13.0636 12C13.0636 11.7091 13.0182 11.4318 12.9273 11.1682C12.8364 10.9045 12.7091 10.6545 12.5455 10.4182L9.81818 6.57273L7.09091 10.4182C6.92727 10.6545 6.8 10.9091 6.70909 11.1818C6.61818 11.4545 6.57273 11.7273 6.57273 12ZM2.18182 12C2.18182 14.7273 3.13636 17.0455 5.04545 18.9545C6.95455 20.8636 9.27273 21.8182 12 21.8182C14.7273 21.8182 17.0455 20.8636 18.9545 18.9545C20.8636 17.0455 21.8182 14.7273 21.8182 12C21.8182 11.1818 21.7182 10.3909 21.5182 9.62727C21.3182 8.86364 21.0364 8.13636 20.6727 7.44545C20.5273 7.7 20.3773 7.93636 20.2227 8.15455C20.0682 8.37273 19.8909 8.58182 19.6909 8.78182C19.4364 9.03636 19.1682 9.25909 18.8864 9.45C18.6045 9.64091 18.2909 9.80909 17.9455 9.95455C18.4727 10.4091 18.8864 10.95 19.1864 11.5773C19.4864 12.2045 19.6364 12.8909 19.6364 13.6364C19.6364 15 19.1636 16.1591 18.2182 17.1136C17.2727 18.0682 16.1182 18.5455 14.7545 18.5455C14.2818 18.5455 13.8318 18.4818 13.4045 18.3545C12.9773 18.2273 12.5818 18.0545 12.2182 17.8364L11.5636 18.7364C11.3636 19.0091 11.1091 19.2273 10.8 19.3909C10.4909 19.5545 10.1636 19.6364 9.81818 19.6364C9.47273 19.6364 9.15 19.5545 8.85 19.3909C8.55 19.2273 8.3 19.0091 8.1 18.7364L5.31818 14.8364C5.00909 14.4182 4.78182 13.9682 4.63636 13.4864C4.49091 13.0045 4.41818 12.5091 4.41818 12C4.41818 11.4909 4.49091 10.9909 4.63636 10.5C4.78182 10.0091 5.00909 9.55455 5.31818 9.13636L8.1 5.23636C8.3 4.96364 8.55 4.75 8.85 4.59545C9.15 4.44091 9.47273 4.36364 9.81818 4.36364C10.1636 4.36364 10.4909 4.44091 10.8 4.59545C11.1091 4.75 11.3636 4.96364 11.5636 5.23636L12.4636 6.51818C12.6091 5.99091 12.7909 5.49091 13.0091 5.01818C13.2273 4.54545 13.5091 4.10909 13.8545 3.70909C14.0182 3.50909 14.1955 3.31818 14.3864 3.13636C14.5773 2.95455 14.7818 2.79091 15 2.64545C14.5273 2.5 14.0409 2.38636 13.5409 2.30455C13.0409 2.22273 12.5273 2.18182 12 2.18182C9.27273 2.18182 6.95455 3.13636 5.04545 5.04545C3.13636 6.95455 2.18182 9.27273 2.18182 12ZM14.3455 14.8364L13.4727 16.0636C13.6727 16.1545 13.8727 16.2273 14.0727 16.2818C14.2727 16.3364 14.4909 16.3636 14.7273 16.3636C15.4909 16.3636 16.1364 16.1 16.6636 15.5727C17.1909 15.0455 17.4545 14.4 17.4545 13.6364C17.4545 12.9455 17.2318 12.35 16.7864 11.85C16.3409 11.35 15.7909 11.0545 15.1364 10.9636C15.1727 11.1455 15.2 11.3182 15.2182 11.4818C15.2364 11.6455 15.2455 11.8182 15.2455 12C15.2455 12.5091 15.1727 13.0045 15.0273 13.4864C14.8818 13.9682 14.6545 14.4182 14.3455 14.8364ZM19.6636 3.32727C18.8091 3.41818 18.0636 3.58182 17.4273 3.81818C16.7909 4.05455 16.2545 4.39091 15.8182 4.82727C15.3818 5.26364 15.0318 5.8 14.7682 6.43636C14.5045 7.07273 14.3273 7.84545 14.2364 8.75455C15.1091 8.66364 15.8636 8.49545 16.5 8.25C17.1364 8.00455 17.6727 7.66364 18.1091 7.22727C18.5455 6.79091 18.8909 6.25 19.1455 5.60455C19.4 4.95909 19.5727 4.2 19.6636 3.32727ZM8.7 14.6182C8.53636 14.4545 8.45455 14.2591 8.45455 14.0318C8.45455 13.8045 8.53636 13.6091 8.7 13.4455L9.43636 12.7091L8.48182 11.9455C8.28182 11.8 8.18182 11.6045 8.18182 11.3591C8.18182 11.1136 8.26364 10.9091 8.42727 10.7455L9.79091 9.38182C9.95455 9.21818 10.1455 9.13636 10.3636 9.13636C10.5818 9.13636 10.7727 9.21818 10.9364 9.38182C11.1 9.54545 11.1818 9.73636 11.1818 9.95455C11.1818 10.1727 11.1 10.3636 10.9364 10.5273L10.2 11.2636L11.1545 12.0545C11.3545 12.2 11.4545 12.3955 11.4545 12.6409C11.4545 12.8864 11.3727 13.0909 11.2091 13.2545L9.84545 14.6182C9.68182 14.7818 9.49091 14.8636 9.27273 14.8636C9.05455 14.8636 8.86364 14.7818 8.7 14.6182Z" fill="#1F1F1F"/>
</svg>
