<svg width="24" height="11" viewBox="0 0 24 11" fill="none" xmlns="http://www.w3.org/2000/svg">
<path d="M22.7158 0C23.4235 0.000250598 23.9999 0.597489 24 1.33008C24 4.75146 21.918 7.67299 18.9971 8.80859L18.918 9.5127C18.8241 10.2891 18.3874 11.001 17.6279 11.001H6.37598C5.62136 11.0008 5.17585 10.289 5.08203 9.5127L4.99805 8.81348C2.08185 7.67301 0 4.75146 0 1.33008C7.35771e-05 0.597489 0.576478 0.000250727 1.28418 0H22.7158ZM3.34863 1.26172C2.77712 1.26172 2.31155 1.72732 2.31152 2.29883C2.31152 4.96723 3.99243 7.24628 6.34668 8.13574L6.41406 8.68066C6.48989 9.28611 7.00888 9.74023 7.61816 9.74023H16.3799C16.9929 9.74023 17.5081 9.2861 17.584 8.68066L17.6484 8.13184C20.0064 7.24612 21.6865 4.96718 21.6865 2.29883C21.6865 1.72732 21.2209 1.26172 20.6494 1.26172H3.34863Z" fill="black"/>
</svg>
