<svg width="24" height="24" viewBox="0 0 24 24" fill="none" xmlns="http://www.w3.org/2000/svg">
<path d="M0.6 24C0.42 24 0.275 23.945 0.165 23.835C0.055 23.725 0 23.58 0 23.4V21.6H16.8V23.4C16.8 23.58 16.745 23.725 16.635 23.835C16.525 23.945 16.38 24 16.2 24H0.6ZM0 19.2V17.4C0 17.22 0.055 17.075 0.165 16.965C0.275 16.855 0.42 16.8 0.6 16.8H6V14.4H10.8V16.8H16.2C16.38 16.8 16.525 16.855 16.635 16.965C16.745 17.075 16.8 17.22 16.8 17.4V19.2H0ZM19.2 24V16.68C18.48 15.86 17.9 15.05 17.46 14.25C17.02 13.45 16.8 12.48 16.8 11.34V0H24V11.34C24 12.48 23.785 13.455 23.355 14.265C22.925 15.075 22.34 15.88 21.6 16.68V21.6H24V24H19.2ZM19.2 7.2H21.6V2.4H19.2V7.2ZM20.4 14.46C20.76 14.04 21.05 13.56 21.27 13.02C21.49 12.48 21.6 11.92 21.6 11.34V9.6H19.2V11.34C19.2 11.92 19.3 12.48 19.5 13.02C19.7 13.56 20 14.04 20.4 14.46Z" fill="#1F1F1F"/>
</svg>
