<svg width="24" height="21" viewBox="0 0 24 21" fill="none" xmlns="http://www.w3.org/2000/svg">
<path d="M2.25 16.5C1.8375 16.5 1.5 16.8375 1.5 17.25C1.5 19.3219 3.17812 21 5.25 21H18.75C20.8219 21 22.5 19.3219 22.5 17.25C22.5 16.8375 22.1625 16.5 21.75 16.5H2.25ZM1.5 7.96875C1.5 8.54063 1.96406 9 2.53125 9H21.4688C22.0406 9 22.5 8.53594 22.5 7.96875C22.5 7.1625 22.3781 6.35625 21.9938 5.64844C20.9531 3.73594 18.1359 0 12 0C5.86406 0 3.04688 3.73125 2.00625 5.64844C1.62188 6.35625 1.5 7.1625 1.5 7.96875ZM0 12.75C0 13.5797 0.670312 14.25 1.5 14.25H22.5C23.3297 14.25 24 13.5797 24 12.75C24 11.9203 23.3297 11.25 22.5 11.25H1.5C0.670312 11.25 0 11.9203 0 12.75ZM12 1.875C12.6234 1.875 13.125 2.37656 13.125 3C13.125 3.62344 12.6234 4.125 12 4.125C11.3766 4.125 10.875 3.62344 10.875 3C10.875 2.37656 11.3766 1.875 12 1.875ZM5.625 4.5C5.625 3.87656 6.12656 3.375 6.75 3.375C7.37344 3.375 7.875 3.87656 7.875 4.5C7.875 5.12344 7.37344 5.625 6.75 5.625C6.12656 5.625 5.625 5.12344 5.625 4.5ZM17.25 3.375C17.8734 3.375 18.375 3.87656 18.375 4.5C18.375 5.12344 17.8734 5.625 17.25 5.625C16.6266 5.625 16.125 5.12344 16.125 4.5C16.125 3.87656 16.6266 3.375 17.25 3.375Z" fill="black"/>
</svg>
