<svg width="24" height="20" viewBox="0 0 24 20" fill="none" xmlns="http://www.w3.org/2000/svg">
<path d="M24 17.3564L0 19.3213V15.6719C1.36432 15.623 1.84436 16.6764 3.29297 16.5566C4.79519 16.4233 4.69797 15.272 6.2002 15.1387C7.70206 15.0099 7.80449 16.1653 9.30176 16.0322C10.804 15.8989 10.7068 14.748 12.209 14.6191C13.7111 14.4859 13.8089 15.6411 15.3154 15.5078C16.8177 15.3745 16.7204 14.2236 18.2227 14.0947C19.7289 13.9616 19.827 15.1167 21.3291 14.9834C22.8355 14.85 22.4978 13.77 24 13.6367V17.3564ZM24 10.6416C22.4934 10.7705 22.5862 11.8501 21.084 11.9834C19.5778 12.112 19.4796 10.961 17.9775 11.0898C16.4711 11.2233 16.573 12.375 15.0664 12.5039C13.5646 12.637 13.4666 11.4812 11.9648 11.6143C10.4626 11.7431 10.5598 12.8994 9.05762 13.0283C7.55558 13.1571 7.45723 12.0059 5.95508 12.1348C4.45337 12.2683 4.55089 13.4194 3.04883 13.5527C1.5467 13.6816 1.50219 12.5528 0 12.6816V11.1963L24 8.37305V10.6416ZM16.3467 0.237305C16.8354 -0.0603652 17.4485 -0.078864 17.9551 0.1875C22.1194 2.37702 23.5235 4.84514 23.8936 6.87402L0.875977 9.58203L16.3467 0.237305Z" fill="black"/>
</svg>
