<svg width="20" height="20" viewBox="0 0 20 20" fill="none" xmlns="http://www.w3.org/2000/svg">
<path d="M2 18C1.45 18 0.979167 17.8042 0.5875 17.4125C0.195833 17.0208 0 16.55 0 16V5H2V16H9V18H2ZM5 4C4.45 4 3.97917 3.80417 3.5875 3.4125C3.19583 3.02083 3 2.55 3 2C3 1.45 3.19583 0.979167 3.5875 0.5875C3.97917 0.195833 4.45 0 5 0C5.55 0 6.02083 0.195833 6.4125 0.5875C6.80417 0.979167 7 1.45 7 2C7 2.55 6.80417 3.02083 6.4125 3.4125C6.02083 3.80417 5.55 4 5 4ZM10 20V15H5C4.45 15 3.97917 14.8042 3.5875 14.4125C3.19583 14.0208 3 13.55 3 13V7.1C3 6.51667 3.2 6.02083 3.6 5.6125C4 5.20417 4.48333 5 5.05 5C5.36667 5 5.6625 5.06667 5.9375 5.2C6.2125 5.33333 6.45 5.51667 6.65 5.75C7.4 6.56667 8.20417 7.3125 9.0625 7.9875C9.92083 8.6625 10.9 9 12 9H13.35C12.9333 8.71667 12.6042 8.3625 12.3625 7.9375C12.1208 7.5125 12 7.03333 12 6.5H18.025C18.025 7.03333 17.9042 7.5125 17.6625 7.9375C17.4208 8.3625 17.0917 8.71667 16.675 9H20V11H16V20H14V11H12C11.1167 11 10.225 10.8083 9.325 10.425C8.425 10.0417 7.65 9.58333 7 9.05V12.5H10C10.55 12.5 11.0208 12.6958 11.4125 13.0875C11.8042 13.4792 12 13.95 12 14.5V20H10Z" fill="#1F1F1F"/>
</svg>
