<svg width="25" height="26" viewBox="0 0 25 26" fill="none" xmlns="http://www.w3.org/2000/svg">
<mask id="path-1-outside-1_667_2781" maskUnits="userSpaceOnUse" x="-0.699951" y="-0.699951" width="26" height="27" fill="black">
<rect fill="white" x="-0.699951" y="-0.699951" width="26" height="27"/>
<path d="M0.543188 20.028C0.187473 20.4228 0.227491 21.0281 0.62767 21.3789C0.809973 21.5368 1.04119 21.6158 1.26796 21.6158C1.53474 21.6158 1.80153 21.5061 1.99272 21.2956L4.95405 17.9929C5.74551 18.9315 6.70149 19.7342 7.76419 20.3614L4.7673 23.7123C4.59833 23.9009 4.51385 24.1465 4.52719 24.4053C4.54498 24.6597 4.66058 24.8921 4.85178 25.0588C5.03408 25.2167 5.2564 25.3 5.49207 25.3C5.51282 25.3 5.53356 25.3 5.55431 25.3C5.81221 25.2825 6.05232 25.1685 6.22128 24.9755L9.58278 21.221C10.7655 21.6509 12.0328 21.8877 13.3534 21.8877C13.5786 21.8877 13.8054 21.8804 14.0337 21.8658C16.955 21.686 19.6228 20.4008 21.5615 18.2385C23.4957 16.0762 24.4605 13.3042 24.2782 10.4226C24.1004 7.54537 22.7931 4.91375 20.601 3.00144C18.4089 1.09351 15.5944 0.141743 12.6819 0.321571C6.66148 0.689998 2.06387 5.82166 2.43737 11.7604C2.54408 13.4358 3.03319 14.9972 3.81576 16.3701L0.543188 20.028ZM9.90292 20.8658L11.0634 19.5719C11.7482 19.8614 12.722 19.9052 13.7402 18.7692C13.9847 18.4973 14.2026 18.1771 14.3938 17.8394C17.9021 17.3175 20.4943 14.2253 20.272 10.6682C20.1564 8.84802 19.3294 7.18133 17.9421 5.97517C16.5592 4.76901 14.7762 4.16374 12.9354 4.27778C11.0901 4.39181 9.39603 5.20323 8.17326 6.57167C6.9994 7.88748 6.39469 9.55856 6.45249 11.2998C6.45249 11.2998 5.87001 11.8963 5.86112 11.9051C4.84289 13.0411 5.0074 13.9928 5.3809 14.6244L4.13146 16.0192C3.42447 14.7341 2.98428 13.2867 2.88646 11.734C2.5263 6.03658 6.93715 1.11106 12.7131 0.755788C12.9354 0.744092 13.1562 0.738244 13.3756 0.738244C15.9367 0.738244 18.3778 1.64615 20.312 3.33039C22.4107 5.16375 23.6646 7.69011 23.838 10.4533C24.0114 13.2121 23.0866 15.8745 21.228 17.9447C19.3738 20.0193 16.8127 21.2561 14.0114 21.4272C12.5752 21.5149 11.1835 21.3088 9.90292 20.8658ZM11.9794 11.6989C11.9794 11.6989 11.0101 10.8393 11.0012 10.8305L8.96917 9.03224C8.88024 8.95329 8.74685 8.95768 8.66237 9.0454L6.88824 10.8524C6.9416 9.37874 7.5063 7.98398 8.50674 6.86115C9.65392 5.58481 11.2324 4.82164 12.9621 4.71638C13.0984 4.70761 13.2348 4.70322 13.3711 4.70322C14.9496 4.70322 16.457 5.26463 17.6486 6.30412C18.947 7.43134 19.7206 8.99276 19.8274 10.6989C20.0274 13.9139 17.7642 16.7253 14.6473 17.3482C14.7984 17.0148 14.9318 16.6771 15.0119 16.3438C15.2564 15.3481 15.1186 14.5674 14.6295 14.142C14.1404 13.7165 13.34 13.6814 12.3707 14.0411C11.5259 14.3525 10.6722 14.9315 10.0897 15.585C9.87625 15.8277 9.71025 16.0601 9.59167 16.2824C9.33082 16.0952 9.08626 15.8905 8.85801 15.6683C9.07441 15.525 9.29376 15.3306 9.51608 15.085L12.0061 11.9972C12.0772 11.9095 12.0683 11.7779 11.9794 11.6989ZM10.0541 18.4754C10.1208 18.4008 10.1252 18.2912 10.0719 18.2078C9.57092 17.4768 9.68801 16.699 10.4232 15.8745C10.9612 15.2736 11.7482 14.7385 12.5263 14.449C13.3222 14.1551 13.9803 14.1639 14.336 14.4709C14.6917 14.7823 14.7807 15.4271 14.5806 16.2385C14.3849 17.0368 13.9492 17.8745 13.4067 18.4798C12.6716 19.2985 11.9053 19.509 11.1079 19.1114C11.0753 19.0938 11.0412 19.085 11.0056 19.085C10.9404 19.085 10.8856 19.1099 10.8411 19.1596L5.89224 24.686C5.79442 24.7913 5.67437 24.8497 5.53208 24.8614C5.39424 24.8658 5.2564 24.822 5.14969 24.7299C5.04298 24.6363 4.98517 24.5179 4.97628 24.3746C4.96739 24.2342 5.01037 24.11 5.10523 24.0018L10.0541 18.4754ZM0.881116 20.3175L5.82555 14.7911C5.89224 14.7165 5.90114 14.6069 5.84333 14.5236C5.34533 13.7926 5.46242 13.0162 6.1946 12.1946L8.83578 9.50154L9.52942 10.1156L7.13724 12.7911C7.05276 12.8832 7.06166 13.0235 7.15503 13.1025C7.19949 13.1376 7.2484 13.1551 7.30176 13.1551C7.36698 13.1551 7.42182 13.1303 7.46628 13.0806L9.86291 10.4095L10.5477 11.0191L8.15992 13.6858C8.07989 13.7735 8.08878 13.9139 8.17771 13.9928C8.22217 14.0309 8.27108 14.0499 8.32444 14.0499C8.38966 14.0499 8.44598 14.025 8.49341 13.9753L10.8767 11.3086L11.5303 11.8875L9.17371 14.8043C8.44894 15.6113 7.67526 15.8262 6.87935 15.4271C6.84674 15.4095 6.81414 15.4008 6.78153 15.4008C6.71632 15.4037 6.65999 15.4285 6.61256 15.4753L1.66813 21.0017C1.47694 21.2166 1.14346 21.2386 0.925581 21.0456C0.707706 20.857 0.68992 20.5324 0.881116 20.3175ZM5.2564 17.6552L6.83489 15.892C7.27508 16.0762 7.83978 16.1595 8.45339 15.892C8.75278 16.1873 9.07589 16.4534 9.42271 16.6903C9.21373 17.3394 9.36491 17.892 9.60946 18.3087L8.07099 20.028C6.99496 19.4096 6.04342 18.6026 5.2564 17.6552Z"/>
</mask>
<path d="M0.543188 20.028C0.187473 20.4228 0.227491 21.0281 0.62767 21.3789C0.809973 21.5368 1.04119 21.6158 1.26796 21.6158C1.53474 21.6158 1.80153 21.5061 1.99272 21.2956L4.95405 17.9929C5.74551 18.9315 6.70149 19.7342 7.76419 20.3614L4.7673 23.7123C4.59833 23.9009 4.51385 24.1465 4.52719 24.4053C4.54498 24.6597 4.66058 24.8921 4.85178 25.0588C5.03408 25.2167 5.2564 25.3 5.49207 25.3C5.51282 25.3 5.53356 25.3 5.55431 25.3C5.81221 25.2825 6.05232 25.1685 6.22128 24.9755L9.58278 21.221C10.7655 21.6509 12.0328 21.8877 13.3534 21.8877C13.5786 21.8877 13.8054 21.8804 14.0337 21.8658C16.955 21.686 19.6228 20.4008 21.5615 18.2385C23.4957 16.0762 24.4605 13.3042 24.2782 10.4226C24.1004 7.54537 22.7931 4.91375 20.601 3.00144C18.4089 1.09351 15.5944 0.141743 12.6819 0.321571C6.66148 0.689998 2.06387 5.82166 2.43737 11.7604C2.54408 13.4358 3.03319 14.9972 3.81576 16.3701L0.543188 20.028ZM9.90292 20.8658L11.0634 19.5719C11.7482 19.8614 12.722 19.9052 13.7402 18.7692C13.9847 18.4973 14.2026 18.1771 14.3938 17.8394C17.9021 17.3175 20.4943 14.2253 20.272 10.6682C20.1564 8.84802 19.3294 7.18133 17.9421 5.97517C16.5592 4.76901 14.7762 4.16374 12.9354 4.27778C11.0901 4.39181 9.39603 5.20323 8.17326 6.57167C6.9994 7.88748 6.39469 9.55856 6.45249 11.2998C6.45249 11.2998 5.87001 11.8963 5.86112 11.9051C4.84289 13.0411 5.0074 13.9928 5.3809 14.6244L4.13146 16.0192C3.42447 14.7341 2.98428 13.2867 2.88646 11.734C2.5263 6.03658 6.93715 1.11106 12.7131 0.755788C12.9354 0.744092 13.1562 0.738244 13.3756 0.738244C15.9367 0.738244 18.3778 1.64615 20.312 3.33039C22.4107 5.16375 23.6646 7.69011 23.838 10.4533C24.0114 13.2121 23.0866 15.8745 21.228 17.9447C19.3738 20.0193 16.8127 21.2561 14.0114 21.4272C12.5752 21.5149 11.1835 21.3088 9.90292 20.8658ZM11.9794 11.6989C11.9794 11.6989 11.0101 10.8393 11.0012 10.8305L8.96917 9.03224C8.88024 8.95329 8.74685 8.95768 8.66237 9.0454L6.88824 10.8524C6.9416 9.37874 7.5063 7.98398 8.50674 6.86115C9.65392 5.58481 11.2324 4.82164 12.9621 4.71638C13.0984 4.70761 13.2348 4.70322 13.3711 4.70322C14.9496 4.70322 16.457 5.26463 17.6486 6.30412C18.947 7.43134 19.7206 8.99276 19.8274 10.6989C20.0274 13.9139 17.7642 16.7253 14.6473 17.3482C14.7984 17.0148 14.9318 16.6771 15.0119 16.3438C15.2564 15.3481 15.1186 14.5674 14.6295 14.142C14.1404 13.7165 13.34 13.6814 12.3707 14.0411C11.5259 14.3525 10.6722 14.9315 10.0897 15.585C9.87625 15.8277 9.71025 16.0601 9.59167 16.2824C9.33082 16.0952 9.08626 15.8905 8.85801 15.6683C9.07441 15.525 9.29376 15.3306 9.51608 15.085L12.0061 11.9972C12.0772 11.9095 12.0683 11.7779 11.9794 11.6989ZM10.0541 18.4754C10.1208 18.4008 10.1252 18.2912 10.0719 18.2078C9.57092 17.4768 9.68801 16.699 10.4232 15.8745C10.9612 15.2736 11.7482 14.7385 12.5263 14.449C13.3222 14.1551 13.9803 14.1639 14.336 14.4709C14.6917 14.7823 14.7807 15.4271 14.5806 16.2385C14.3849 17.0368 13.9492 17.8745 13.4067 18.4798C12.6716 19.2985 11.9053 19.509 11.1079 19.1114C11.0753 19.0938 11.0412 19.085 11.0056 19.085C10.9404 19.085 10.8856 19.1099 10.8411 19.1596L5.89224 24.686C5.79442 24.7913 5.67437 24.8497 5.53208 24.8614C5.39424 24.8658 5.2564 24.822 5.14969 24.7299C5.04298 24.6363 4.98517 24.5179 4.97628 24.3746C4.96739 24.2342 5.01037 24.11 5.10523 24.0018L10.0541 18.4754ZM0.881116 20.3175L5.82555 14.7911C5.89224 14.7165 5.90114 14.6069 5.84333 14.5236C5.34533 13.7926 5.46242 13.0162 6.1946 12.1946L8.83578 9.50154L9.52942 10.1156L7.13724 12.7911C7.05276 12.8832 7.06166 13.0235 7.15503 13.1025C7.19949 13.1376 7.2484 13.1551 7.30176 13.1551C7.36698 13.1551 7.42182 13.1303 7.46628 13.0806L9.86291 10.4095L10.5477 11.0191L8.15992 13.6858C8.07989 13.7735 8.08878 13.9139 8.17771 13.9928C8.22217 14.0309 8.27108 14.0499 8.32444 14.0499C8.38966 14.0499 8.44598 14.025 8.49341 13.9753L10.8767 11.3086L11.5303 11.8875L9.17371 14.8043C8.44894 15.6113 7.67526 15.8262 6.87935 15.4271C6.84674 15.4095 6.81414 15.4008 6.78153 15.4008C6.71632 15.4037 6.65999 15.4285 6.61256 15.4753L1.66813 21.0017C1.47694 21.2166 1.14346 21.2386 0.925581 21.0456C0.707706 20.857 0.68992 20.5324 0.881116 20.3175ZM5.2564 17.6552L6.83489 15.892C7.27508 16.0762 7.83978 16.1595 8.45339 15.892C8.75278 16.1873 9.07589 16.4534 9.42271 16.6903C9.21373 17.3394 9.36491 17.892 9.60946 18.3087L8.07099 20.028C6.99496 19.4096 6.04342 18.6026 5.2564 17.6552Z" fill="black"/>
<path d="M0.543188 20.028C0.187473 20.4228 0.227491 21.0281 0.62767 21.3789C0.809973 21.5368 1.04119 21.6158 1.26796 21.6158C1.53474 21.6158 1.80153 21.5061 1.99272 21.2956L4.95405 17.9929C5.74551 18.9315 6.70149 19.7342 7.76419 20.3614L4.7673 23.7123C4.59833 23.9009 4.51385 24.1465 4.52719 24.4053C4.54498 24.6597 4.66058 24.8921 4.85178 25.0588C5.03408 25.2167 5.2564 25.3 5.49207 25.3C5.51282 25.3 5.53356 25.3 5.55431 25.3C5.81221 25.2825 6.05232 25.1685 6.22128 24.9755L9.58278 21.221C10.7655 21.6509 12.0328 21.8877 13.3534 21.8877C13.5786 21.8877 13.8054 21.8804 14.0337 21.8658C16.955 21.686 19.6228 20.4008 21.5615 18.2385C23.4957 16.0762 24.4605 13.3042 24.2782 10.4226C24.1004 7.54537 22.7931 4.91375 20.601 3.00144C18.4089 1.09351 15.5944 0.141743 12.6819 0.321571C6.66148 0.689998 2.06387 5.82166 2.43737 11.7604C2.54408 13.4358 3.03319 14.9972 3.81576 16.3701L0.543188 20.028ZM9.90292 20.8658L11.0634 19.5719C11.7482 19.8614 12.722 19.9052 13.7402 18.7692C13.9847 18.4973 14.2026 18.1771 14.3938 17.8394C17.9021 17.3175 20.4943 14.2253 20.272 10.6682C20.1564 8.84802 19.3294 7.18133 17.9421 5.97517C16.5592 4.76901 14.7762 4.16374 12.9354 4.27778C11.0901 4.39181 9.39603 5.20323 8.17326 6.57167C6.9994 7.88748 6.39469 9.55856 6.45249 11.2998C6.45249 11.2998 5.87001 11.8963 5.86112 11.9051C4.84289 13.0411 5.0074 13.9928 5.3809 14.6244L4.13146 16.0192C3.42447 14.7341 2.98428 13.2867 2.88646 11.734C2.5263 6.03658 6.93715 1.11106 12.7131 0.755788C12.9354 0.744092 13.1562 0.738244 13.3756 0.738244C15.9367 0.738244 18.3778 1.64615 20.312 3.33039C22.4107 5.16375 23.6646 7.69011 23.838 10.4533C24.0114 13.2121 23.0866 15.8745 21.228 17.9447C19.3738 20.0193 16.8127 21.2561 14.0114 21.4272C12.5752 21.5149 11.1835 21.3088 9.90292 20.8658ZM11.9794 11.6989C11.9794 11.6989 11.0101 10.8393 11.0012 10.8305L8.96917 9.03224C8.88024 8.95329 8.74685 8.95768 8.66237 9.0454L6.88824 10.8524C6.9416 9.37874 7.5063 7.98398 8.50674 6.86115C9.65392 5.58481 11.2324 4.82164 12.9621 4.71638C13.0984 4.70761 13.2348 4.70322 13.3711 4.70322C14.9496 4.70322 16.457 5.26463 17.6486 6.30412C18.947 7.43134 19.7206 8.99276 19.8274 10.6989C20.0274 13.9139 17.7642 16.7253 14.6473 17.3482C14.7984 17.0148 14.9318 16.6771 15.0119 16.3438C15.2564 15.3481 15.1186 14.5674 14.6295 14.142C14.1404 13.7165 13.34 13.6814 12.3707 14.0411C11.5259 14.3525 10.6722 14.9315 10.0897 15.585C9.87625 15.8277 9.71025 16.0601 9.59167 16.2824C9.33082 16.0952 9.08626 15.8905 8.85801 15.6683C9.07441 15.525 9.29376 15.3306 9.51608 15.085L12.0061 11.9972C12.0772 11.9095 12.0683 11.7779 11.9794 11.6989ZM10.0541 18.4754C10.1208 18.4008 10.1252 18.2912 10.0719 18.2078C9.57092 17.4768 9.68801 16.699 10.4232 15.8745C10.9612 15.2736 11.7482 14.7385 12.5263 14.449C13.3222 14.1551 13.9803 14.1639 14.336 14.4709C14.6917 14.7823 14.7807 15.4271 14.5806 16.2385C14.3849 17.0368 13.9492 17.8745 13.4067 18.4798C12.6716 19.2985 11.9053 19.509 11.1079 19.1114C11.0753 19.0938 11.0412 19.085 11.0056 19.085C10.9404 19.085 10.8856 19.1099 10.8411 19.1596L5.89224 24.686C5.79442 24.7913 5.67437 24.8497 5.53208 24.8614C5.39424 24.8658 5.2564 24.822 5.14969 24.7299C5.04298 24.6363 4.98517 24.5179 4.97628 24.3746C4.96739 24.2342 5.01037 24.11 5.10523 24.0018L10.0541 18.4754ZM0.881116 20.3175L5.82555 14.7911C5.89224 14.7165 5.90114 14.6069 5.84333 14.5236C5.34533 13.7926 5.46242 13.0162 6.1946 12.1946L8.83578 9.50154L9.52942 10.1156L7.13724 12.7911C7.05276 12.8832 7.06166 13.0235 7.15503 13.1025C7.19949 13.1376 7.2484 13.1551 7.30176 13.1551C7.36698 13.1551 7.42182 13.1303 7.46628 13.0806L9.86291 10.4095L10.5477 11.0191L8.15992 13.6858C8.07989 13.7735 8.08878 13.9139 8.17771 13.9928C8.22217 14.0309 8.27108 14.0499 8.32444 14.0499C8.38966 14.0499 8.44598 14.025 8.49341 13.9753L10.8767 11.3086L11.5303 11.8875L9.17371 14.8043C8.44894 15.6113 7.67526 15.8262 6.87935 15.4271C6.84674 15.4095 6.81414 15.4008 6.78153 15.4008C6.71632 15.4037 6.65999 15.4285 6.61256 15.4753L1.66813 21.0017C1.47694 21.2166 1.14346 21.2386 0.925581 21.0456C0.707706 20.857 0.68992 20.5324 0.881116 20.3175ZM5.2564 17.6552L6.83489 15.892C7.27508 16.0762 7.83978 16.1595 8.45339 15.892C8.75278 16.1873 9.07589 16.4534 9.42271 16.6903C9.21373 17.3394 9.36491 17.892 9.60946 18.3087L8.07099 20.028C6.99496 19.4096 6.04342 18.6026 5.2564 17.6552Z" stroke="black" stroke-width="0.6" mask="url(#path-1-outside-1_667_2781)"/>
</svg>
