<svg width="24" height="22" viewBox="0 0 24 22" fill="none" xmlns="http://www.w3.org/2000/svg">
<path d="M7.69091 13.2C5.87273 13.2 4.31818 12.5583 3.02727 11.275C1.73636 9.99167 1.09091 8.43333 1.09091 6.6C1.09091 4.76667 1.73636 3.20833 3.02727 1.925C4.31818 0.641667 5.88182 0 7.71818 0H8.15455C7.75455 0.458333 7.44545 0.971667 7.22727 1.54C7.00909 2.10833 6.9 2.695 6.9 3.3C6.9 4.675 7.37727 5.84375 8.33182 6.80625C9.28636 7.76875 10.4455 8.25 11.8091 8.25C12.2273 8.25 12.6364 8.19958 13.0364 8.09875C13.4364 7.99792 13.8182 7.84667 14.1818 7.645C13.9273 9.25833 13.1909 10.5875 11.9727 11.6325C10.7545 12.6775 9.32727 13.2 7.69091 13.2ZM7.66364 11C8.1 11 8.53182 10.9404 8.95909 10.8212C9.38636 10.7021 9.78182 10.5142 10.1455 10.2575C8.56364 9.8725 7.27273 9.04292 6.27273 7.76875C5.27273 6.49458 4.75455 5.04167 4.71818 3.41C4.24545 3.83167 3.88636 4.3175 3.64091 4.8675C3.39545 5.4175 3.27273 5.995 3.27273 6.6C3.27273 7.81 3.7 8.84583 4.55455 9.7075C5.40909 10.5692 6.44545 11 7.66364 11ZM18.5455 9.9H20.7273V6.6H18.5455V9.9ZM19.6364 14.3C19.9455 14.3 20.2045 14.1946 20.4136 13.9837C20.6227 13.7729 20.7273 13.5117 20.7273 13.2V12.1H18.5455V13.2C18.5455 13.5117 18.65 13.7729 18.8591 13.9837C19.0682 14.1946 19.3273 14.3 19.6364 14.3ZM5.29091 19.8H9.98182C10.2364 19.8 10.4636 19.7267 10.6636 19.58C10.8636 19.4333 10.9909 19.2317 11.0455 18.975L11.4 17.6H3.87273L4.22727 18.975C4.28182 19.2317 4.40909 19.4333 4.60909 19.58C4.80909 19.7267 5.03636 19.8 5.29091 19.8ZM0 22V19.8H2.18182C2.16364 19.745 2.15 19.6946 2.14091 19.6487C2.13182 19.6029 2.11818 19.5525 2.1 19.4975L1.09091 15.4H14.1818L13.1727 19.4975C13.1545 19.5525 13.1409 19.6029 13.1318 19.6487C13.1227 19.6946 13.1091 19.745 13.0909 19.8H18.5455V16.3075C17.8909 16.0692 17.3636 15.6658 16.9636 15.0975C16.5636 14.5292 16.3636 13.8967 16.3636 13.2V4.4H22.9091V13.2C22.9091 13.8967 22.7091 14.5292 22.3091 15.0975C21.9091 15.6658 21.3818 16.0692 20.7273 16.3075V19.8H24V22H0Z" fill="#1F1F1F"/>
</svg>
