<svg width="24" height="20" viewBox="0 0 24 20" fill="none" xmlns="http://www.w3.org/2000/svg">
<path d="M2.4 20C1.74 20 1.175 19.7824 0.705 19.3472C0.235 18.912 0 18.3889 0 17.7778V14.4444H24V17.7778C24 18.3889 23.765 18.912 23.295 19.3472C22.825 19.7824 22.26 20 21.6 20H2.4ZM2.4 16.6667V17.7778H21.6V16.6667H2.4ZM12 11.6667C11.28 11.6667 10.71 11.8519 10.29 12.2222C9.87 12.5926 9.1 12.7778 7.98 12.7778C6.86 12.7778 6.1 12.5926 5.7 12.2222C5.3 11.8519 4.74 11.6667 4.02 11.6667C3.3 11.6667 2.73 11.8519 2.31 12.2222C1.89 12.5926 1.12 12.7778 0 12.7778V10.5556C0.72 10.5556 1.29 10.3704 1.71 10C2.13 9.62963 2.9 9.44445 4.02 9.44445C5.14 9.44445 5.9 9.62963 6.3 10C6.7 10.3704 7.26 10.5556 7.98 10.5556C8.7 10.5556 9.27 10.3704 9.69 10C10.11 9.62963 10.88 9.44445 12 9.44445C13.12 9.44445 13.89 9.62963 14.31 10C14.73 10.3704 15.3 10.5556 16.02 10.5556C16.74 10.5556 17.3 10.3704 17.7 10C18.1 9.62963 18.86 9.44445 19.98 9.44445C21.1 9.44445 21.89 9.62963 22.35 10C22.81 10.3704 23.36 10.5556 24 10.5556V12.7778C22.88 12.7778 22.13 12.5926 21.75 12.2222C21.37 11.8519 20.82 11.6667 20.1 11.6667C19.38 11.6667 18.8 11.8519 18.36 12.2222C17.92 12.5926 17.14 12.7778 16.02 12.7778C14.9 12.7778 14.13 12.5926 13.71 12.2222C13.29 11.8519 12.72 11.6667 12 11.6667ZM0 7.77778V6.66667C0 4.53704 1.085 2.89352 3.255 1.73611C5.425 0.578704 8.34 0 12 0C15.66 0 18.575 0.578704 20.745 1.73611C22.915 2.89352 24 4.53704 24 6.66667V7.77778H0ZM12 2.22222C9.52 2.22222 7.445 2.50926 5.775 3.08333C4.105 3.65741 3.04 4.48148 2.58 5.55556H21.42C20.96 4.48148 19.895 3.65741 18.225 3.08333C16.555 2.50926 14.48 2.22222 12 2.22222Z" fill="#1F1F1F"/>
</svg>
