<svg width="24" height="24" viewBox="0 0 24 24" fill="none" xmlns="http://www.w3.org/2000/svg">
<path d="M5.26829 24V14.1818H2.92683C2.10732 14.1818 1.41463 13.9182 0.84878 13.3909C0.282927 12.8636 0 12.2182 0 11.4545C0 10.6909 0.282927 10.0455 0.84878 9.51818C1.41463 8.99091 2.10732 8.72727 2.92683 8.72727H5.26829V7.63636H2.92683C2.10732 7.63636 1.41463 7.37273 0.84878 6.84545C0.282927 6.31818 0 5.67273 0 4.90909C0 4.14545 0.282927 3.5 0.84878 2.97273C1.41463 2.44545 2.10732 2.18182 2.92683 2.18182H5.26829V0H7.60976V2.18182H9.95122C10.7707 2.18182 11.4634 2.44545 12.0293 2.97273C12.5951 3.5 12.878 4.14545 12.878 4.90909C12.878 5.67273 12.5951 6.31818 12.0293 6.84545C11.4634 7.37273 10.7707 7.63636 9.95122 7.63636H7.60976V8.72727H9.95122C10.7707 8.72727 11.4634 8.99091 12.0293 9.51818C12.5951 10.0455 12.878 10.6909 12.878 11.4545C12.878 12.2182 12.5951 12.8636 12.0293 13.3909C11.4634 13.9182 10.7707 14.1818 9.95122 14.1818H7.60976V24H5.26829ZM2.92683 12H9.95122C10.1073 12 10.2439 11.9455 10.361 11.8364C10.478 11.7273 10.5366 11.6 10.5366 11.4545C10.5366 11.3091 10.478 11.1818 10.361 11.0727C10.2439 10.9636 10.1073 10.9091 9.95122 10.9091H2.92683C2.77073 10.9091 2.63415 10.9636 2.51707 11.0727C2.4 11.1818 2.34146 11.3091 2.34146 11.4545C2.34146 11.6 2.4 11.7273 2.51707 11.8364C2.63415 11.9455 2.77073 12 2.92683 12ZM2.92683 5.45455H9.95122C10.1073 5.45455 10.2439 5.4 10.361 5.29091C10.478 5.18182 10.5366 5.05455 10.5366 4.90909C10.5366 4.76364 10.478 4.63636 10.361 4.52727C10.2439 4.41818 10.1073 4.36364 9.95122 4.36364H2.92683C2.77073 4.36364 2.63415 4.41818 2.51707 4.52727C2.4 4.63636 2.34146 4.76364 2.34146 4.90909C2.34146 5.05455 2.4 5.18182 2.51707 5.29091C2.63415 5.4 2.77073 5.45455 2.92683 5.45455ZM15.8049 24V21.8182H18.1463V14.0182C17.1122 13.7636 16.2683 13.25 15.6146 12.4773C14.961 11.7045 14.6341 10.8182 14.6341 9.81818V0H24V9.81818C24 10.8182 23.6732 11.7045 23.0195 12.4773C22.3659 13.25 21.522 13.7636 20.4878 14.0182V21.8182H22.8293V24H15.8049ZM19.3171 12C19.961 12 20.5122 11.7864 20.9707 11.3591C21.4293 10.9318 21.6585 10.4182 21.6585 9.81818V7.63636H16.9756V9.81818C16.9756 10.4182 17.2049 10.9318 17.6634 11.3591C18.122 11.7864 18.6732 12 19.3171 12ZM16.9756 5.45455H21.6585V2.18182H16.9756V5.45455Z" fill="#1F1F1F"/>
</svg>
